# File created by Blade
# Date/Time:  Wed Jan 21 17:47:32 2015
# Frame Rate: 120.000 fps
#------------------------------------------------------
:FULLY-SPECIFIED
:DEGREES
1364
root 19.556535 28.854793 -19.005783 -143.993647 64.015604 -187.791318
Spine 37.411603 -20.394338 1.914015
Head -11.971094 -10.780627 16.005010
LeftShoulder 6.107432 -39.017989 20.405669
LeftArm 5.570922 -4.617561 -21.709861
LeftForeArm -24.685561 -0.000000 0.872989
LeftHand -4.884104 -0.000000 41.431654
LeftHandThumb1 -26.253704 0.000000 33.147579
RightShoulder -3.146940 1.340978 -13.713294
RightArm -4.609372 46.443958 31.709847
RightForeArm -22.390384 0.000000 32.277162
RightHand -10.063387 -0.000000 -17.897312
RightHandThumb1 -24.326973 -0.000000 -32.862282
LeftUpLeg -9.100055 31.481053 -0.702458
LeftLeg -2.912540 -0.000000 0.000000
LeftFoot -39.064330 14.038636 -28.041393
LeftToeBase 29.244673 -0.000000 -0.000000
RightUpLeg -97.067446 -5.133763 -2.946219
RightLeg 58.917910 -0.000000 -0.000000
RightFoot -21.224892 -18.531403 15.339315
RightToeBase 25.107387 -0.000000 -0.000000
1365
root 19.558232 28.860635 -19.020949 -143.369193 64.304590 -187.219648
Spine 37.800891 -20.784498 1.389513
Head -12.273001 -10.449134 16.755578
LeftShoulder 6.821655 -38.982273 20.362942
LeftArm 6.370310 -4.422877 -22.194072
LeftForeArm -24.543910 -0.000000 0.436642
LeftHand -4.549441 -0.000000 40.702287
LeftHandThumb1 -26.253704 0.000000 33.147579
RightShoulder -3.545865 0.977829 -13.252947
RightArm -4.674283 46.319721 31.505841
RightForeArm -22.026637 -0.000000 31.267576
RightHand -9.955187 -0.000000 -17.918226
RightHandThumb1 -24.326973 -0.000000 -32.862282
LeftUpLeg -9.129094 31.691002 -0.689518
LeftLeg -2.944305 -0.000000 0.000000
LeftFoot -39.140484 14.083608 -28.137003
LeftToeBase 29.165893 -0.000000 -0.000000
RightUpLeg -97.093480 -4.766707 -2.935501
RightLeg 58.723354 -0.000000 -0.000000
RightFoot -21.144958 -18.634175 15.267461
RightToeBase 25.140647 -0.000000 -0.000000
1366
root 19.564628 28.864643 -19.034986 -142.676807 64.633626 -186.545547
Spine 38.245291 -21.143344 0.810688
Head -12.503292 -10.098292 17.541301
LeftShoulder 7.526842 -38.893772 20.304743
LeftArm 7.197622 -4.162411 -22.567435
LeftForeArm -24.675780 -0.000000 -0.052843
LeftHand -4.429562 -0.000000 39.848837
LeftHandThumb1 -26.253704 0.000000 33.147579
RightShoulder -3.834097 0.624728 -12.744547
RightArm -4.769685 46.126998 31.208967
RightForeArm -21.463947 0.000000 30.126655
RightHand -9.750525 -0.000000 -18.029133
RightHandThumb1 -24.326973 -0.000000 -32.862282
LeftUpLeg -9.105444 31.946443 -0.643441
LeftLeg -2.992627 -0.000000 0.000000
LeftFoot -39.210905 14.124362 -28.263744
LeftToeBase 29.067927 -0.000000 -0.000000
RightUpLeg -97.098964 -4.332855 -2.906875
RightLeg 58.529423 -0.000000 -0.000000
RightFoot -21.014075 -18.686099 15.298541
RightToeBase 24.954576 -0.000000 -0.000000
1367
root 19.567432 28.866463 -19.051907 -142.063656 64.949901 -185.977607
Spine 38.646785 -21.485193 0.245436
Head -12.677887 -9.793194 18.285205
LeftShoulder 8.443200 -39.213747 20.132302
LeftArm 7.698120 -3.644959 -22.910668
LeftForeArm -24.876161 0.000000 -0.329232
LeftHand -4.525341 -0.000000 38.777523
LeftHandThumb1 -26.253704 0.000000 33.147579
RightShoulder -4.153617 0.294611 -12.246249
RightArm -4.913472 45.870460 30.848806
RightForeArm -21.109203 -0.000000 28.913845
RightHand -9.619252 -0.000000 -18.041107
RightHandThumb1 -24.326973 -0.000000 -32.862282
LeftUpLeg -9.100761 32.150879 -0.644757
LeftLeg -3.042206 -0.000000 0.000000
LeftFoot -39.317778 14.243661 -28.354066
LeftToeBase 29.086608 -0.000000 -0.000000
RightUpLeg -97.149364 -3.952513 -2.902657
RightLeg 58.374256 -0.000000 -0.000000
RightFoot -20.878954 -18.758649 15.246373
RightToeBase 24.927453 -0.000000 -0.000000
1368
root 19.569470 28.869759 -19.072470 -141.547414 65.216622 -185.482610
Spine 39.156501 -21.924406 -0.338775
Head -12.990246 -9.427298 18.963322
LeftShoulder 9.339784 -39.657917 19.971946
LeftArm 8.079572 -3.141235 -23.223462
LeftForeArm -24.950165 -0.000000 -0.584169
LeftHand -4.722126 -0.000000 37.836298
LeftHandThumb1 -26.253704 0.000000 33.147579
RightShoulder -4.442290 0.217200 -11.859322
RightArm -5.177625 45.319366 30.487195
RightForeArm -20.573320 -0.000000 27.657111
RightHand -9.459128 -0.000000 -18.166389
RightHandThumb1 -24.326973 -0.000000 -32.862282
LeftUpLeg -9.075873 32.282918 -0.636139
LeftLeg -3.066663 -0.000000 0.000000
LeftFoot -39.411099 14.327939 -28.473484
LeftToeBase 29.011873 -0.000000 -0.000000
RightUpLeg -97.170645 -3.638160 -2.896275
RightLeg 58.246028 -0.000000 -0.000000
RightFoot -20.790728 -18.858479 15.156400
RightToeBase 24.918632 -0.000000 -0.000000
